<?xml version="1.0" encoding="utf-8"?>
<!-- Generator: Adobe Illustrator 26.2.1, SVG Export Plug-In . SVG Version: 6.00 Build 0)  -->
<svg version="1.1" id="Layer_1" xmlns="http://www.w3.org/2000/svg" xmlns:xlink="http://www.w3.org/1999/xlink" x="0px" y="0px"
	 viewBox="0 0 243.3 91.2" style="enable-background:new 0 0 243.3 91.2;" xml:space="preserve">
<style type="text/css">
	.st0{fill:#005280;}
	.st1{fill-rule:evenodd;clip-rule:evenodd;fill:#005280;}
</style>
<g id="Group_1356" transform="translate(3737 54.001)">
	<path id="Path_2194" class="st0" d="M-3621.3-16.9l0.2,2.3c0.1,0.7,0.1,1.2,0.1,1.4l-0.4,0.1c-0.5-1.3-1.4-2.5-2.5-3.4
		c-1-0.8-2.3-1.2-3.6-1.1c-1.4-0.1-2.8,0.2-4.1,0.6c-1.5,0.7-2.8,1.8-3.6,3.2c-1,1.6-1.6,3.5-1.5,5.4c0,1.1,0.2,2.2,0.6,3.3
		c0.4,1,0.9,1.9,1.6,2.7c0.7,0.8,1.5,1.6,2.4,2.2c0.7,0.4,1.4,0.7,2.1,0.9c0.7,0.1,1.4,0.2,2.1,0.2c0.7,0,1.3-0.1,2-0.3
		c0.6-0.1,1.1-0.3,1.6-0.7c0.3-0.2,0.6-0.6,0.8-1c0.2-0.7,0.2-1.4,0.2-2.1c0.1-1,0-2-0.3-3c-0.2-0.3-0.9-0.5-2.2-0.6l-0.6,0l-0.4,0
		c-0.1,0-0.1,0-0.2,0l-0.2-0.4c0-0.1,0-0.1,0.1-0.2c1.1-0.1,2.2-0.1,3.4-0.1c0.4,0,1,0,1.9,0l1.5,0.1l1.4,0c0.3,0,0.6,0,1,0
		c0.1,0,0.1,0,0.1,0.1c0,0,0,0.1,0,0.1c0,0.1,0,0.3-0.1,0.4c-0.3,0.1-0.6,0.1-1,0.1l-1,0c-0.3,0-0.6,0.1-0.8,0.3
		c-0.1,0.4-0.2,0.7-0.1,1.1l0,2c0,0.9,0,1.7-0.2,2.6c-0.1,0.2-0.2,0.4-0.4,0.6c-0.4,0.3-0.8,0.5-1.2,0.6c-0.8,0.3-1.5,0.6-2.4,0.7
		c-1.3,0.2-2.5,0.3-3.8,0.3c-1.6,0.1-3.3-0.2-4.8-0.8c-1.2-0.5-2.3-1.2-3.3-2.1c-0.8-0.8-1.5-1.7-1.9-2.7c-0.6-1.3-0.9-2.7-0.9-4.1
		c0-1.8,0.5-3.6,1.4-5.1c1-1.8,2.6-3.2,4.5-4.1c1.8-0.8,3.9-1.2,5.9-1.1c1.4,0,2.8,0.1,4.2,0.4C-3623-17.7-3622.1-17.4-3621.3-16.9
		 M-3616.8,0.7c0.8-0.1,1.6-0.2,2.5-0.4c0.2-0.1,0.3-0.3,0.4-0.4v-0.2c0-0.2,0-1.1,0.1-2.7c0-0.4,0-0.9,0-1.3l0-1.8l0-2l0-3.7l0-2.7
		c0.1-0.7,0-1.4-0.3-2.1c-0.4-0.3-0.9-0.5-1.4-0.5c-0.4,0-0.9-0.1-1.3-0.2c-0.1-0.1-0.1-0.1-0.1-0.2c0-0.1,0-0.2,0-0.3
		c0.2-0.1,0.4-0.2,0.7-0.1c0.1,0,0.2,0,0.4,0c0.2,0,0.4,0,0.6,0h1.2l3.9,0c1.6-0.1,3.1,0.1,4.7,0.5c0.9,0.3,1.6,0.9,2.1,1.7
		c1.4,2.1,0.9,4.9-1.2,6.3c-0.3,0.2-0.6,0.3-0.9,0.5c-0.3,0.1-0.5,0.3-0.8,0.4c0.3,0.7,0.8,1.6,1.4,2.6l1.9,3.2
		c0.5,0.8,1,1.5,1.6,2.2c0.3,0.3,0.7,0.6,1.1,0.8c0.7,0.3,1.4,0.5,2.1,0.6c0,0.1,0,0.2,0,0.2c0,0.1,0,0.1,0,0.2c-1.4,0-3,0-4.8,0
		c-0.1,0-0.3,0-0.5,0c-0.7-1.4-1.5-2.8-2.5-4.5l-2.2-4c-0.2-0.3-0.4-0.6-0.7-0.8c-0.2-0.1-0.5-0.2-0.8-0.2l-1.3,0l-0.4,0
		c0,0.3,0,1,0,2v5.1c0,0.3,0,0.5,0.1,0.8c0.1,0.2,0.2,0.4,0.4,0.5c0.5,0.2,1.1,0.4,1.7,0.5l0.6,0.1c0.1,0.1,0.1,0.3,0.1,0.4
		c-0.2,0-0.4,0.1-0.6,0.1c-0.9,0-1.5,0-1.9,0c-0.2,0-0.3,0-0.5,0l-2,0l-2,0c-0.1,0-0.5,0-1.4,0l-0.3-0.1l0-0.2
		C-3617,0.9-3616.9,0.8-3616.8,0.7 M-3611.2-9c0.3,0,0.5,0,0.6,0c0.8,0,1.7-0.1,2.5-0.3c0.6-0.1,1.1-0.3,1.6-0.6
		c0.4-0.3,0.8-0.8,1-1.3c0.3-0.6,0.4-1.2,0.4-1.8c0-0.8-0.2-1.5-0.6-2.1c-0.4-0.6-1-1.1-1.7-1.4c-0.9-0.4-1.8-0.6-2.8-0.6
		c-0.3,0-0.6,0-1,0c0,0.5-0.1,0.9-0.1,1.2l0.1,2.8l0,1.1C-3611.3-11.2-3611.3-10.2-3611.2-9 M-3589.8-18c0,0.1,0.1,0.3,0.1,0.4
		c0,0.1,0,0.2,0,0.3c-0.2,0.1-0.4,0.1-0.6,0.1c-0.1,0-0.2,0-0.4,0c-0.2,0-0.3,0-0.4,0c-0.4,0-0.8,0.1-1.1,0.3
		c-0.2,0.1-0.3,0.2-0.3,0.4l-0.1,1.7l0,7.4c-0.1,1.7,0,3.4,0.3,5.1c0.1,0.6,0.4,1.2,0.9,1.6c0.5,0.5,1.1,0.9,1.8,1.1
		c0.7,0.3,1.5,0.4,2.3,0.4c1.3,0.1,2.7-0.2,3.9-0.7c0.9-0.4,1.5-1.2,1.9-2c0.5-1.3,0.7-2.6,0.6-3.9c0,0,0-0.4,0-1.2v-0.4
		c0-0.2,0-0.5,0-0.9c0-0.5,0-0.7,0-0.8l-0.2-4.3c0-0.9-0.1-1.7-0.2-2.6c-0.1-0.2-0.2-0.4-0.4-0.6c-0.7-0.4-1.4-0.6-2.2-0.7
		c-0.1-0.1-0.1-0.3-0.1-0.4c0.4,0,0.8-0.1,1.2-0.1c0.4,0,0.8,0,1.3,0c0.7,0,1,0.1,1.1,0.1l2.4-0.1l0.5,0l0,0.5
		c-0.8,0-1.5,0.2-2.2,0.6c-0.3,0.3-0.4,0.8-0.4,1.2c0,0.3,0,1,0.1,2l0.1,3.1l0,1.2l0,1.6c0,1.3,0,2.7-0.2,4
		c-0.1,0.8-0.3,1.6-0.7,2.3c-0.3,0.6-0.7,1.1-1.3,1.6c-0.7,0.5-1.4,0.9-2.2,1.1c-0.9,0.3-1.8,0.4-2.8,0.4c-1,0-2.1-0.1-3.1-0.3
		c-1-0.3-1.9-0.7-2.7-1.4c-0.6-0.4-1.1-1-1.4-1.7c-0.4-1-0.6-2.1-0.5-3.2v-1l0-4.2l0-3.4v-2.3c0-0.4,0-0.8-0.2-1.2
		c-0.1-0.2-0.3-0.2-0.5-0.2l-0.9,0c-0.4,0-0.9,0-1.3-0.2c0-0.1,0-0.2,0-0.2c0-0.1,0-0.2,0.1-0.2c0.1-0.1,0.3-0.1,0.4-0.1h0.4l1,0
		h2.3L-3589.8-18z M-3576.2-17.9c0.1,0,0.2,0,0.3,0c0.3,0,0.9,0,1.7,0.1c0.4,0,0.7,0,0.8,0c0.2,0,0.7,0,1.4-0.1l2.5-0.2
		c0.7-0.1,1.4-0.1,2.3-0.1c1.3-0.1,2.6,0.2,3.7,0.7c0.9,0.4,1.7,1.2,2.1,2.1c0.5,0.9,0.7,1.8,0.8,2.8c0,1.5-0.6,3-1.6,4
		c-1.2,1.2-2.8,1.8-4.4,1.7c-0.9,0-1.8-0.2-2.5-0.8c-0.2-0.1-0.3-0.2-0.3-0.4c0-0.1,0.1-0.1,0.2-0.1c0.1,0,0.3,0,0.4,0.1
		c0.4,0.1,0.8,0.2,1.3,0.2c0.8,0,1.5-0.2,2.2-0.6c0.7-0.4,1.2-1,1.6-1.7c0.4-0.7,0.5-1.5,0.5-2.3c0-0.8-0.2-1.6-0.6-2.3
		c-0.3-0.7-0.9-1.3-1.5-1.8c-0.5-0.3-1-0.5-1.6-0.6c-0.5-0.1-1.1-0.2-1.7-0.3c-0.7-0.1-1.5,0-2.2,0.3l0,0.2l0,1.7l0,0.3
		c0,0.3,0,0.7,0,1.2c0,2,0,3.3,0.1,3.8v0.8l0.2,6.8c0,0.1,0,0.3,0,0.6c0,0.3,0,0.5,0,0.7c0,0.4,0,0.7,0.1,1.1
		c0.2,0.1,0.9,0.2,2.1,0.5c0.5,0.1,0.8,0.2,0.9,0.2c0.1,0,0.2,0.1,0.2,0.2c0,0.1-0.1,0.2-0.2,0.3c-0.1,0.1-0.3,0.1-0.4,0.1
		c-0.1,0-0.4,0-0.8-0.1c-0.9-0.1-1.5-0.1-2-0.1l-2.6,0.1l-1.6,0c-0.1,0-0.4,0-0.9,0l0-0.4l1.9-0.4c0.2,0,0.4-0.1,0.6-0.3
		c0.1-0.3,0.2-0.5,0.1-0.8c0-0.1,0-0.3,0-0.6c0-0.2,0-0.5,0-0.9c0-1.2,0-3.7-0.1-7.5c0-1.8-0.1-3.6-0.1-5.5v-0.3
		c0-0.7-0.1-1.2-0.3-1.4c-0.8-0.5-1.8-0.8-2.8-0.8c0-0.1-0.1-0.2-0.1-0.3C-3576.3-17.7-3576.3-17.8-3576.2-17.9 M-3558.3-8.3
		c0-0.9,0.1-1.8,0.4-2.7c0.3-0.9,0.7-1.8,1.2-2.6c0.5-0.9,1.3-1.7,2.1-2.3c1-0.7,2.2-1.3,3.4-1.6c1.3-0.4,2.5-0.5,3.8-0.5
		c1,0,2.1,0.1,3.1,0.4c1,0.3,1.9,0.7,2.7,1.2c0.9,0.6,1.8,1.4,2.4,2.3c0.6,0.7,1,1.5,1.3,2.3c0.4,1.1,0.6,2.2,0.6,3.4
		c0,1.1-0.1,2.2-0.4,3.3c-0.3,0.9-0.7,1.8-1.3,2.6c-0.7,0.9-1.5,1.6-2.4,2.3c-0.9,0.6-1.8,1.1-2.8,1.4c-1.2,0.4-2.4,0.5-3.6,0.5
		c-1.2,0-2.4-0.1-3.5-0.5c-0.9-0.3-1.8-0.6-2.6-1.1c-0.8-0.5-1.5-1.2-2.2-2c-0.7-0.8-1.3-1.8-1.7-2.9
		C-3558.1-6-3558.3-7.2-3558.3-8.3 M-3547.9,0.9c0.9,0,1.8-0.1,2.6-0.3c0.9-0.2,1.7-0.6,2.4-1.2c0.7-0.5,1.2-1.1,1.6-1.8
		c0.4-0.8,0.8-1.7,0.9-2.7c0.2-1.1,0.4-2.2,0.4-3.3c0-1.4-0.2-2.7-0.6-4c-0.3-1-0.8-1.9-1.5-2.7c-0.7-0.8-1.6-1.4-2.5-1.8
		c-1-0.4-2.1-0.7-3.1-0.6c-0.9,0-1.8,0.2-2.7,0.4c-0.8,0.2-1.5,0.6-2.1,1.1c-0.6,0.6-1.2,1.2-1.6,2c-0.5,0.9-0.9,1.8-1.1,2.8
		c-0.2,0.9-0.4,1.8-0.4,2.7c0,0.9,0.1,1.9,0.4,2.8c0.2,0.9,0.6,1.9,1,2.7c0.4,0.8,1,1.4,1.6,2C-3551.3,0.3-3549.7,0.9-3547.9,0.9"/>
	<path id="Path_2195" class="st1" d="M-3639.8,26.2l0-1c0.9,0,1.7-0.3,2.4-0.8c0.3-0.6,0.5-1.2,0.5-1.9l0.2-5.3l0.2-5.4
		c0-0.3,0-0.5,0-0.6c0.1-0.8,0-1.6-0.2-2.4c-0.6-0.4-1.2-0.6-1.9-0.6c-0.3-0.1-0.5-0.1-0.7-0.1c0-0.2,0-0.5,0-0.6V6.9
		c0.4,0,0.8,0,1.3,0l4.4,0.1c0.1,0,0.2,0,0.4,0l0.7,0c0.2,0.2,0.4,0.5,0.5,0.8c0.4,0.7,0.9,1.8,1.5,3.2l0.2,0.4l2.3,5.1
		c0.1,0.1,0.1,0.3,0.2,0.5c0.2,0.4,0.3,0.7,0.5,1c0.2,0.3,0.3,0.7,0.5,1.1c0.2,0.4,0.3,0.7,0.5,1c0.2-0.3,0.3-0.5,0.4-0.8
		c0.4-0.9,0.8-1.8,1.2-2.5c0.7-1.4,1.6-3.4,2.7-6.2c0.2-0.4,0.5-1.1,0.9-2c0.4-0.9,0.6-1.4,0.7-1.4c0.2-0.1,0.3-0.1,0.5-0.1
		c0.1,0,0.3,0,0.5,0c0.5,0,1.1-0.1,1.9-0.1c1,0,1.9,0,2.5-0.1s1-0.1,1.1-0.1c0.1,0,0.2,0,0.4,0c0,0.1,0,0.2,0,0.3l0,0.4
		c0,0.1,0,0.2,0,0.4c-0.8,0.1-1.6,0.3-2.3,0.6c-0.4,0.2-0.6,0.4-0.6,0.7v0.2l0.3,4.6c0,0.4,0.1,2.5,0.2,6.2c0,0.8,0.1,1.9,0.2,3.2
		c0,0.1,0,0.2,0,0.4c0,0.2,0,0.3,0.2,0.5c0.1,0.1,1,0.4,2.7,0.9c0,0.2,0,0.3,0,0.4c0,0.2,0,0.4,0,0.6c-0.3,0-0.9-0.1-2-0.2
		c-1-0.1-2-0.2-3.1-0.2c-1.4,0-2.9,0.1-4.2,0.2c-0.2,0-0.4,0-0.5,0l0-1c0.5-0.2,1.1-0.3,1.6-0.4c0.3,0,0.7-0.2,0.9-0.4
		c0.2-0.5,0.3-1,0.2-1.6c0-0.3,0-0.6,0-0.9c0-1-0.1-2.5-0.1-4.4l-0.3-5.3c0-0.7-0.1-1.3-0.1-1.6l-3.7,8.6c-0.1,0.2-0.2,0.5-0.4,0.9
		c-0.2,0.5-0.4,0.8-0.5,1c-0.8,1.8-1.3,3.3-1.6,4.2c-0.1,0.2-0.2,0.6-0.4,1l-1.1,0l-0.8-2.3c-0.2-0.6-0.6-1.5-1.2-2.7
		c-0.3-0.7-0.6-1.3-0.8-1.7c-0.1-0.2-0.2-0.3-0.2-0.4l-0.2-0.4c0-0.1,0-0.1,0-0.1l-2.2-4.8l-1.4-2.9l-0.1,7.1l-0.1,4.6
		c-0.1,0.6,0.1,1.1,0.4,1.6c0.5,0.4,1.2,0.7,1.8,0.8l0.7,0.2v1.1c-0.6,0-1.2-0.1-1.9-0.1c-0.9-0.1-1.8-0.1-2.6-0.1
		C-3637.1,26-3638,26.1-3639.8,26.2 M-3612.9,26.2h0.3c0.7,0,1.4-0.1,2.1-0.2l0.6-0.1c2.3,0.2,3.8,0.3,4.4,0.3c0-0.1,0-0.2,0-0.3
		c0-0.1,0-0.4,0-0.7c-0.6-0.1-1-0.1-1.1-0.2c-0.5,0-0.9-0.2-1.3-0.4c-0.2-0.1-0.2-0.3-0.2-0.6c0-0.4,0.1-0.7,0.3-1.1
		c0.7-1.9,1.1-3,1.3-3.5l5.7,0l1.2,2.9l0.6,1.5c0,0.1,0.1,0.3,0.1,0.4c0,0.1-0.1,0.3-0.1,0.3c-0.3,0.1-0.6,0.2-0.9,0.3l-1.7,0.4
		c0,0.3,0,0.7,0,1l0.7,0l2.5-0.1c0.3,0,0.9,0,1.7,0c0.7,0,1.5,0,2.4,0.1c0.9,0.1,1.7,0.1,2.4,0.1c0-0.1,0-0.3,0-0.3
		c0-0.2,0-0.5-0.1-0.7c-0.4-0.2-0.9-0.3-1.3-0.3c-0.3,0-0.6-0.1-0.9-0.3c-0.2-0.2-0.3-0.5-0.4-0.7c-0.3-0.6-0.6-1.3-0.8-1.9
		c-0.3-0.9-0.6-1.6-0.8-2.1c-0.3-0.8-0.7-1.8-1.2-3s-1-2.5-1.6-3.8l-2.6-6.2l-0.1-0.3h-1.6l-3.5,9.3l-3,7.9
		c-0.1,0.3-0.3,0.6-0.6,0.9c-0.4,0.2-0.9,0.3-1.4,0.4c-0.3,0.1-0.7,0.1-1,0.2L-3612.9,26.2z M-3605.8,17.8l2.2-5.8
		c0.3,0.6,0.7,1.5,1.2,2.7c0.5,1.2,0.9,2.2,1.2,3.1l-0.4,0C-3602.1,17.8-3603.5,17.8-3605.8,17.8 M-3591.1,25.3c0,0.2,0,0.3,0,0.5
		c0,0.1,0,0.2,0,0.5h0.6c0.6,0,1.1,0,1.7-0.1l2.1-0.1c0.1,0,0.3,0,0.6,0c0.4,0,1.7,0.1,3.8,0.3l0.6,0c0,0,0.2,0,0.4,0
		c0-0.4,0.1-0.7,0.1-1.1c-0.6-0.2-1.3-0.4-2-0.6c-0.4-0.1-0.8-0.2-1.1-0.4l0.1-2.8l-0.1-3.3c0-0.4,0-0.7,0-1c0.5,0,0.8,0,1,0
		c0.5,0,1.1,0.1,1.5,0.3c0.4,0.5,0.8,1.1,1,1.7c1.1,2.1,1.8,3.7,2.3,4.6c0.2,0.4,0.5,0.9,0.9,1.7l0.5,1l0.6-0.1
		c0.6-0.1,0.9-0.1,1-0.1l1.5,0c0.4,0,0.8,0,1.2,0.1h0.6l0.8,0.1l0.3,0h0.4c0-0.1,0-0.3,0-0.3c0-0.2,0-0.3-0.1-0.4
		c-0.3-0.2-0.7-0.4-1-0.5c-0.4-0.1-0.8-0.3-1.1-0.6c-0.4-0.6-0.8-1.2-1.2-1.8l-2.4-3.9c-0.3-0.4-0.6-0.9-1-1.5
		c-0.2-0.2-0.3-0.5-0.5-0.7c1.2-0.3,2.2-1,3-1.9c0.6-0.8,1-1.7,1-2.7c0-1.4-0.7-2.7-1.8-3.6c-1.4-1.1-3.1-1.7-4.9-1.6
		c-1.2,0-2.5,0.1-3.7,0.2l-1.9,0.1l-0.8,0c-0.1,0-0.4,0-1.2-0.1c-0.7,0-1.2,0-1.4,0c-0.5,0-0.9,0-1.4,0.1l-0.1,0.2l0,0.9
		c0.3,0,0.8,0.1,1.6,0.1l0.9,0.2c0.1,0.6,0.1,1.9,0.1,4c0,0.9,0,2,0,3.1l0,0.8l0,1.4l-0.1,1.8l0,3.3c0,0.8,0,1.3,0,1.4
		c0,0.1-0.1,0.3-0.1,0.4c-0.4,0.2-0.9,0.3-1.4,0.3C-3590.3,25-3590.7,25.1-3591.1,25.3 M-3584.4,15.6v-0.4c0-0.7,0-1.3,0-1.8l0-1.6
		l0-1.2l0-2l0-0.3c0.4-0.1,0.8-0.1,1.2-0.1c0.7,0,1.4,0,2.1,0.2c0.5,0.2,1,0.5,1.4,0.9c0.3,0.4,0.5,0.8,0.6,1.2
		c0.2,0.6,0.3,1.2,0.3,1.8c0,0.9-0.4,1.8-1.1,2.4c-1.1,0.7-2.3,1-3.6,0.9C-3583.5,15.6-3583.9,15.6-3584.4,15.6 M-3569.8,26.2
		c0.2,0,0.6,0,1.3-0.1c1-0.1,1.8-0.1,2.3-0.1l2.6,0c1.2,0.1,1.8,0.2,2,0.2c0.1,0,0.3,0,0.4,0c0,0,0.2,0,0.6,0c0.1,0,0.2,0,0.3,0
		c0-0.2,0-0.4,0-0.5c0-0.3,0-0.5-0.1-0.7c-0.5-0.1-0.8-0.1-0.9-0.1c-0.6-0.1-1.1-0.1-1.6-0.3c-0.1-0.1-0.1-0.2-0.1-0.3l0-0.6l-0.1-3
		l0.1-2l0-3.9c0-0.9,0-2.2,0-3.9c0-0.3,0-0.7,0-1c0-0.4,0-0.8,0.1-1.1c0.4-0.2,0.8-0.3,1.3-0.4c0.5-0.1,1-0.3,1.4-0.4
		c0-0.3,0-0.5,0-0.7c0-0.1,0-0.3,0-0.5c-0.2,0-0.6,0-1.4,0.1c-1.3,0.1-2.2,0.1-2.8,0.1c-0.1,0-0.5,0-1,0l-4.3-0.2l0,1.3
		c0.1,0,0.3,0,0.5,0c0.7,0,1.4,0.1,2,0.4c0,0.2,0.1,0.3,0.1,0.5l0,0.6l0.1,1.7l0,0.8l0,2c0,0.1,0,1.1-0.1,3.1l0,0.8l0,3.4l0,1.8
		c0,0.4-0.1,0.9-0.3,1.3c-0.5,0.2-0.9,0.4-1.4,0.5c-0.5,0.1-0.8,0.2-1,0.3L-3569.8,26.2z M-3546.2,7.3c-0.7-0.3-1.5-0.5-2.3-0.6
		c-0.7-0.1-1.4-0.2-2.1-0.3c-1.8-0.1-3.6,0.5-5,1.7c-1.1,1-1.7,2.5-1.7,4c0,0.9,0.2,1.7,0.6,2.5c0.4,0.8,1,1.5,1.7,2
		c1.2,0.7,2.5,1.3,3.8,1.7c1.2,0.3,2.3,0.9,3.4,1.6c1.2,0.9,1.4,2.5,0.5,3.7c0,0,0,0.1-0.1,0.1c-0.4,0.5-0.9,0.9-1.6,1.1
		c-0.6,0.2-1.2,0.3-1.8,0.3c-0.6,0-1.1-0.1-1.7-0.3c-0.5-0.2-0.9-0.4-1.3-0.8c-0.4-0.4-0.8-0.8-1-1.2c-0.1-0.2-0.4-0.9-0.9-2l-1.4,0
		v0.6c0,0.3,0,0.7,0,1.4c0,1.3,0.1,1.9,0.1,2V25c0,0.1,0.1,0.2,0.1,0.3c0.3,0.2,0.6,0.3,0.9,0.4l1.8,0.5c0.8,0.2,1.7,0.3,2.5,0.3
		c0.9,0,1.7-0.1,2.6-0.3c0.7-0.2,1.4-0.5,2-0.9c0.5-0.3,1-0.7,1.4-1.1c0.4-0.4,0.7-0.9,0.9-1.4c0.3-0.9,0.5-1.8,0.5-2.8
		c0-0.7-0.1-1.5-0.3-2.1c-0.3-0.7-0.7-1.3-1.2-1.8c-0.6-0.6-1.2-1-2-1.3c-0.7-0.3-1.5-0.6-2.2-0.9c-1.3-0.3-2.5-0.9-3.6-1.7
		c-0.5-0.5-0.8-1.1-0.9-1.8c0-0.7,0.3-1.4,0.9-1.9c0.6-0.5,1.5-0.8,2.3-0.8c1,0,2,0.4,2.7,1.2c0.6,0.8,1.1,1.7,1.3,2.7l0.2,0
		l1.1,0.1l0.2,0c0-0.2,0.1-0.4,0.1-0.6c0-0.8-0.1-1.6-0.2-2.4C-3546,8.3-3546.1,7.8-3546.2,7.3 M-3541.6,6c-0.1,0.2-0.2,0.6-0.3,1.2
		c-0.3,1.3-0.8,2.6-1.3,3.9c0.3,0.2,0.6,0.4,0.9,0.6c0.1,0,0.3-0.2,0.6-0.5c0.5-0.8,1.2-1.5,1.9-2c0.6-0.2,1.2-0.3,1.9-0.3
		c1.7,0,2.7,0,3,0.1c0.1,0,0.1,0,0.2,0.1c0.1,0.1,0.1,0.1,0.1,0.2c0.1,0.9,0.1,1.9,0.1,2.8l0.1,5.7c0,2.6,0,4.5-0.1,5.7
		c0,0.3-0.1,0.5-0.2,0.7c-0.7,0.3-1.4,0.5-2.2,0.7c-0.5,0.1-0.9,0.3-1.2,0.6v0.1l0,0.3c0,0.1,0,0.2,0,0.3c0.2,0,0.5,0,1.1-0.1
		c1.5-0.1,2.3-0.2,2.6-0.2c1.9,0,3.2,0,3.9,0.1c0.9,0.1,1.7,0.1,2.6,0.1c0.1,0,0.3,0,0.5,0c0-0.1,0-0.3,0-0.4c0-0.1,0-0.3-0.1-0.7
		c-0.3-0.1-0.5-0.2-0.8-0.2c-0.7-0.2-1-0.2-1.1-0.2c-0.3,0-0.6-0.1-0.9-0.2c-0.1-0.5-0.2-1-0.2-1.6l0-1.9l0-4.7v-4.4l0-2
		c0-0.3,0-0.6,0.1-1c0.4,0,0.8-0.1,1.1-0.1c1.9,0,2.9,0,3.2,0.1c0.2,0,0.3,0.1,0.4,0.3c0.2,0.4,0.4,0.8,0.6,1.2
		c0.2,0.6,0.5,1.2,0.8,1.7c0.4,0,0.7-0.1,1.1-0.2c0-0.2,0.1-0.4,0.1-0.7l0-0.8l0-1.3c0-1.4,0-2.4,0-3.1c-0.2,0-0.3,0-0.4,0l-0.7,0
		c-0.1,0.2-0.1,0.3-0.2,0.4c-0.1,0.3-0.2,0.5-0.4,0.7l-0.9,0.1h-4.6l-3.4,0l-1.8,0l-0.3,0c-0.6,0-1.3,0-2.1,0c-1.2,0-1.9,0-2.1,0
		c-0.2-0.3-0.5-0.6-0.6-1c0-0.1-0.1-0.1-0.2-0.2L-3541.6,6z M-3524.8,26.2h0.3c0.7,0,1.4-0.1,2.1-0.2l0.6-0.1
		c2.3,0.2,3.8,0.3,4.4,0.3c0-0.1,0-0.2,0-0.3c0-0.1,0-0.4,0-0.7c-0.6-0.1-1-0.1-1.1-0.2c-0.5,0-0.9-0.2-1.3-0.4
		c-0.2-0.1-0.2-0.3-0.2-0.6c0-0.4,0.1-0.7,0.3-1.1c0.7-1.9,1.1-3,1.3-3.5l5.7,0l1.2,2.9l0.6,1.5c0,0.1,0.1,0.3,0.1,0.4
		c0,0.1-0.1,0.3-0.1,0.3c-0.3,0.1-0.6,0.2-0.9,0.3l-1.7,0.4c0,0.3,0,0.7,0,1l0.7,0l2.5-0.1c0.3,0,0.9,0,1.7,0c0.7,0,1.5,0,2.4,0.1
		s1.7,0.1,2.4,0.1c0-0.1,0-0.3,0-0.3c0-0.2,0-0.5-0.1-0.7c-0.4-0.2-0.9-0.3-1.3-0.3c-0.3,0-0.6-0.1-0.9-0.3
		c-0.2-0.2-0.3-0.5-0.4-0.7c-0.3-0.6-0.6-1.3-0.8-1.9c-0.3-0.9-0.6-1.6-0.8-2.1c-0.3-0.8-0.7-1.8-1.2-3s-1-2.5-1.6-3.8l-2.6-6.2
		l-0.1-0.3h-1.6l-3.5,9.3l-3,7.9c-0.1,0.3-0.4,0.6-0.6,0.9c-0.4,0.2-0.9,0.3-1.4,0.4c-0.3,0.1-0.7,0.1-1,0.2L-3524.8,26.2z
		 M-3517.8,17.8l2.2-5.8c0.3,0.6,0.7,1.5,1.2,2.7s0.9,2.2,1.2,3.1l-0.4,0C-3514.1,17.8-3515.4,17.8-3517.8,17.8"/>
	<path id="Path_2196" class="st1" d="M-3673.9-20.2c1.5-0.5,8.2-1.1,8.2,3c0,1.2-0.9,2.1-2,2.2c-0.1,0-0.1,0-0.2,0
		c-2.9,0.1-1.7-3.4-1.8-3.4c-6.9,0-4.1,14.9-3.9,17.2c0.1,1.3-0.8,2.4-2.1,2.5c-0.1,0-0.3,0-0.4,0c-1,0.1-1.9-0.5-2.2-1.5
		c-0.5-1.4-0.6-14.7,6.2-19.1c-1.9,0-7.4,3.7-9.8,11.1c0.2,1.8,0.2,3.7,0,5.5c-0.1,2-0.6,3.3-2.4,3.3c-1.5,0-2.5-1.1-2.3-3.3
		c0.3-3.9,1.7-15.4-2.2-17.2c-4.2,1.6-2.2,16.2-2.2,17.2c0.1,1.5-0.3,3.3-2.5,3.3c-2.4,0-2.3-1.5-2.4-3.3c0-1.5,0.1-4.2,0.2-5.5
		c-3.3-7.8-8-11.1-9.8-11.1c6.8,4.4,6.6,17.7,6.1,19.1c-0.2,1-1.2,1.6-2.2,1.5c-1.3,0.1-2.5-1-2.5-2.3c0-0.1,0-0.2,0-0.3
		c0.3-2.3,3-17.2-3.9-17.2c-0.1,0,1.1,3.4-1.8,3.4c-1.2,0.1-2.1-0.8-2.2-2c0-0.1,0-0.1,0-0.2c0-4.1,6.7-3.6,8.2-3
		c3.4,1.2,6.6,4.9,8.4,9.1c0.7-4.4,3.3-9.5,6.5-10.1c3.2,0.5,5.7,5.7,6.6,10C-3680.6-15.1-3678.2-18.2-3673.9-20.2 M-3703.6,4.3
		c0,1.2,0.9,2.1,2.1,2.1c1.2,0,2.1-0.9,2.1-2.1c0-1.2-0.9-2.1-2.1-2.1c0,0,0,0,0,0C-3702.7,2.2-3703.6,3.1-3703.6,4.3 M-3695.8,3.8
		c0,1.2,0.9,2.1,2.1,2.1c1.2,0,2.1-0.9,2.1-2.1c0-1.2-0.9-2.1-2.1-2.1C-3694.8,1.7-3695.8,2.6-3695.8,3.8
		C-3695.8,3.8-3695.8,3.8-3695.8,3.8 M-3686.3,3.6c0,1.2,1,2.1,2.1,2.1s2.1-1,2.1-2.1c0-1.2-0.9-2.1-2.1-2.1
		C-3685.4,1.5-3686.3,2.4-3686.3,3.6C-3686.3,3.6-3686.3,3.6-3686.3,3.6 M-3678.3,4.2c0,1.2,0.9,2.1,2.1,2.1c1.2,0,2.1-0.9,2.1-2.1
		s-0.9-2.1-2.1-2.1c0,0,0,0,0,0C-3677.3,2.1-3678.3,3-3678.3,4.2C-3678.3,4.2-3678.3,4.2-3678.3,4.2 M-3667.8,28.6
		c0.1,0,0.1,0,0.2-0.1v0c0.3,0.4,0.8,0.6,1.2,0.6c0.8,0,1.4-0.5,1.6-1.2c10.9-1.5,9.7-15.1,13.6-15.8c-2.1-0.2-3.4,1.5-4.6,3.8
		c0.1-4-1.8-8-2.1-9.8c-0.3-1.1,1.2-1.9,2.1-1.1c0.6,0.8,0.7,1.8,0.3,2.6c0.8,0.2,1.7-1.6,0.5-2.9c-1.3-1.6-3.9-1-3.9,1
		c0.8,4.8,3.2,8.9,1.6,12.6c-0.2,0.4-0.3,0.7-0.4,1.1c1.5-6.5-7.2-15-7.4-17.7c-0.3-1.8,2.6-2.1,1.1,0.8c0.9-0.1,1.5-0.9,1.5-1.8
		c0-0.1,0-0.1,0-0.2c-0.1-0.8-0.8-1.4-1.6-1.3c-0.8,0.1-1.6,0.7-1.8,1.5c-0.3,1.2,0.7,3.8,2.7,6.8c3.1,4.4,5.5,9.6,4.1,13
		c-0.9-6-5.7-5.5-8.2-9.6c-1.8-2.9,3.4-4.5,1.6,0.2c2.5-0.5,1.5-3.5-0.4-3.9c-1.2-0.2-2.4,0.7-2.6,1.9c-0.3,1.1,0.4,3.2,3,5.3
		c-4.3-0.3-6.8,3.3-4.2,4.9c0-5.3,9.6-3.5,9.8,1.8c-4.6-6.9-10,0.6-5.8,2.2c0.9,0.3,1.9-0.1,2.4-0.9c0.1-0.1-2,0.3-2.1-1.2
		c0-0.7,0.6-1.2,1.3-1.2c1.6,0.1,3.6,3.6-0.6,6.4c-0.3-0.4-0.8-0.6-1.3-0.6c-0.8,0-1.5,0.6-1.6,1.4c-7.1-0.8-5.6-12.6-5.6-16.8
		c0.1-4.4-5.3-4.2-5.2-0.6c0,3.3,2.5,15.1,6.5,17.2c-5.6-0.5-9.4-8.7-9.4-17.4c0-3.4-3-3.4-4.1-1.8c0,0,0,0,0-0.1l-0.1,0.1l0,0
		c-0.1,0.1-0.2,0.3-0.2,0.4c-0.6,1.2-1.8,3.5-2.8,6v3.1c0.1,0.2,0.1,0.4,0.1,0.6c0.6,2.1,1,4.3,1.3,6.5c0.3,2.3-0.9,2.9-1.4,3v1.2
		c3.9-0.8,2.6-7.4,0.5-13.1c0.6-1.7,1.4-3.4,2.4-5C-3685.2,16-3681.5,29.7-3667.8,28.6 M-3688.8,28.8v-1.2h0c-1.5-0.1-1.5-2.1-1.4-3
		c0.2-2.2,0.5-4.4,1.1-6.5c0,0,0.1-0.3,0.3-0.9c0,0.1,0,0.2,0.1,0.3v-3.1l-0.1,0.1c-0.9-2.3-2-4.5-3.3-6.5c-1.1-1.6-4.1-1.5-4.1,1.8
		c0,8.7-3.8,17-9.4,17.4c4-2.1,6.5-13.9,6.5-17.2c0.1-3.6-5.4-3.8-5.3,0.6c0.1,4.2,1.5,16.2-5.7,16.8c-0.1,0-0.1,0-0.2,0
		c-0.1-0.8-0.8-1.4-1.6-1.4c-0.5,0-0.9,0.2-1.3,0.6c-4.2-2.7-2.2-6.3-0.6-6.4c0.7,0,1.2,0.5,1.3,1.2c-0.2,1.4-2.2,1.1-2.1,1.2
		c0.5,0.8,1.5,1.1,2.4,0.9c4.2-1.6-1.2-9.1-5.8-2.2c0.2-5.3,9.8-7.1,9.8-1.8c2.6-1.5,0.2-5.2-4.2-4.9c2.5-2.1,3.2-4.3,2.9-5.3
		c-0.2-1.2-1.3-2.1-2.6-1.9c-1.9,0.4-2.9,3.4-0.4,3.9c-1.7-4.6,3.5-3.1,1.6-0.2c-2.5,4.1-7.3,3.6-8.2,9.6c-1.4-3.5,1-8.7,4.1-13
		c2.1-3,3-5.5,2.7-6.8c-0.3-0.8-1-1.4-1.8-1.5c-0.8,0-1.5,0.5-1.6,1.3c-0.2,0.9,0.3,1.7,1.2,1.9c0.1,0,0.1,0,0.2,0
		c-1.5-2.9,1.4-2.6,1.1-0.8c-0.3,2.7-8.9,11.2-7.4,17.7c-0.1-0.2-0.2-0.7-0.4-1.1c-1.6-3.7,0.8-7.7,1.6-12.6c0-2.1-2.6-2.6-3.9-1
		c-1.2,1.2-0.3,3.1,0.5,2.9c-0.4-0.9-0.2-1.9,0.3-2.6c0.5-0.5,1.3-0.5,1.8,0.1c0.3,0.3,0.4,0.7,0.3,1c-0.3,1.9-2.2,5.9-2.1,9.8
		c-1.2-2.3-2.5-3.9-4.6-3.8c3.9,0.7,2.7,14.2,13.5,15.8c0.2,0.7,0.9,1.2,1.6,1.2c0.5,0,1-0.2,1.3-0.6v0c0.1,0,0.2,0,0.3,0.1
		c14.2,1.3,17.8-13.3,18.4-18.2c1.2,1.6,2.1,3.4,2.7,5.3C-3691.4,21.5-3693.2,28.2-3688.8,28.8
		C-3688.8,28.8-3688.8,28.8-3688.8,28.8 M-3689.9-42.6l-0.7,2.1l1.8-1.3l1.8,1.3l-0.7-2.1l1.8-1.3h-2.2l-0.7-2.1l-0.7,2.1h-2.3
		L-3689.9-42.6z M-3689.9-28.2l-0.7,2.1l1.8-1.3l1.8,1.3l-0.7-2.1l1.8-1.3h-2.2l-0.7-2.1l-0.7,2.1h-2.3L-3689.9-28.2z M-3697.6-41.8
		l-0.7,2.1l1.8-1.3l1.8,1.3l-0.7-2.1l1.8-1.3h-2.2l-0.7-2.1l-0.7,2.1h-2.3L-3697.6-41.8z M-3697.6-28.9l-0.7,2.1l1.8-1.3l1.8,1.3
		l-0.7-2.1l1.8-1.3h-2.2l-0.7-2.1l-0.7,2.1h-2.3L-3697.6-28.9z M-3704.7-39.9l-0.7,2.1l1.8-1.3l1.8,1.3l-0.7-2.1l1.8-1.3h-2.2
		l-0.7-2.1l-0.7,2.1h-2.3L-3704.7-39.9z M-3704.7-30.6l-0.7,2.1l1.8-1.3l1.8,1.3l-0.7-2.1l1.8-1.3h-2.2l-0.7-2.1l-0.7,2.1h-2.3
		L-3704.7-30.6z M-3682.3-41.8l-0.7,2.1l1.8-1.3l1.8,1.3l-0.7-2.1l1.8-1.3h-2.2l-0.7-2.1l-0.7,2.1h-2.3L-3682.3-41.8z M-3682.3-28.9
		l-0.7,2.1l1.8-1.3l1.8,1.3l-0.7-2.1l1.8-1.3h-2.2l-0.7-2.1l-0.7,2.1h-2.3L-3682.3-28.9z M-3675.2-39.9l-0.7,2.1l1.8-1.3l1.8,1.3
		l-0.7-2.1l1.8-1.3h-2.2l-0.7-2.1l-0.7,2.1h-2.3L-3675.2-39.9z M-3675.2-30.6l-0.7,2.1l1.8-1.3l1.8,1.3l-0.7-2.1l1.8-1.3h-2.2
		l-0.7-2.1l-0.7,2.1h-2.3L-3675.2-30.6z M-3669.7-35.2l-0.7,2.1l1.8-1.3l1.8,1.3l-0.7-2.1l1.8-1.3h-2.2l-0.7-2.1l-0.7,2.1h-2.3
		L-3669.7-35.2z M-3710.2-35.2l-0.7,2.1l1.8-1.3l1.8,1.3l-0.7-2.1l1.8-1.3h-2.2l-0.7-2.1l-0.7,2.1h-2.3L-3710.2-35.2z"/>
</g>
</svg>
